# xmcd
#
# Track frame offsets: 
#        150
#        20358
#        38101
#        59982
#        77390
#        98948
#        115746
#        142517
#        162233
#        181872
#        206407
#
# Disc length: 2934 seconds
#
# Revision: 0
# Processed by: cddbd v1.5.2PL0 Copyright (c) Steve Scherf et al.
# Submitted via: ExactAudioCopyFreeDBPlugin 1.0
#
DISCID=840b740b
DTITLE=Caitlin Rose - Own Side Now
DYEAR=2012
DGENRE=Country
TTITLE0=Learning To Ride
TTITLE1=Own Side
TTITLE2=For The Rabbits
TTITLE3=Shanghai Cigarettes
TTITLE4=New York City
TTITLE5=Spare Me (Fetzer's Blues)
TTITLE6=Things Change
TTITLE7=That's Alright
TTITLE8=Sinful Wishing Well
TTITLE9=Coming Up
TTITLE10=T-Shirt
EXTD=
EXTT0=
EXTT1=
EXTT2=
EXTT3=
EXTT4=
EXTT5=
EXTT6=
EXTT7=
EXTT8=
EXTT9=
EXTT10=
PLAYORDER=
